# Blender v2.82 (sub 7) OBJ File: 'player.blend'
# www.blender.org
mtllib player.mtl
o Torso_Cube
v 0.234360 -0.351540 -0.117180
v 0.234360 -0.351540 0.117180
v -0.234360 -0.351540 -0.117180
v -0.234360 -0.351540 0.117180
v 0.234360 0.351540 0.117180
v 0.234360 0.351540 -0.117180
v -0.234360 0.351540 -0.117180
v -0.234360 0.351540 0.117180
vt 0.000000 0.000000
vt 0.000000 0.000000
vt 0.000000 0.000000
vt 0.000000 0.000000
vt 0.125000 0.062500
vt 0.250000 0.125000
vt 0.375000 0.375000
vt 0.250000 0.250000
vn 0.0000 -1.0000 0.0000
vn -1.0000 0.0000 0.0000
vn 1.0000 -0.0000 0.0000
vn 0.0000 0.0000 1.0000
vn 0.0000 0.0000 -1.0000
vn 0.0000 1.0000 0.0000
usemtl HeadMaterial
s off
f 2/1/1 4/2/1 3/3/1 1/4/1
f 3/3/2 4/2/2 8/5/2 7/6/2
f 6/7/3 5/8/3 2/1/3 1/4/3
f 2/1/4 5/8/4 8/5/4 4/2/4
f 6/7/5 1/4/5 3/3/5 7/6/5
f 6/7/6 7/6/6 8/5/6 5/8/6
o Left_Arm_Cube.001
v -0.468820 -0.351540 0.117180
v -0.468820 0.351540 0.117180
v -0.468820 -0.351540 -0.117180
v -0.468820 0.351540 -0.117180
v -0.234460 -0.351540 0.117180
v -0.234460 0.351540 0.117180
v -0.234460 -0.351540 -0.117180
v -0.234460 0.351540 -0.117180
vt 0.375000 0.000000
vt 0.625000 0.000000
vt 0.625000 0.250000
vt 0.375000 0.250000
vt 0.625000 0.500000
vt 0.375000 0.500000
vt 0.625000 0.750000
vt 0.375000 0.750000
vt 0.625000 1.000000
vt 0.375000 1.000000
vt 0.125000 0.500000
vt 0.125000 0.750000
vt 0.875000 0.500000
vt 0.875000 0.750000
vn -1.0000 0.0000 0.0000
vn 0.0000 0.0000 -1.0000
vn 1.0000 0.0000 0.0000
vn 0.0000 0.0000 1.0000
vn 0.0000 -1.0000 0.0000
vn 0.0000 1.0000 0.0000
usemtl None
s off
f 9/9/7 10/10/7 12/11/7 11/12/7
f 11/12/8 12/11/8 16/13/8 15/14/8
f 15/14/9 16/13/9 14/15/9 13/16/9
f 13/16/10 14/15/10 10/17/10 9/18/10
f 11/19/11 15/14/11 13/16/11 9/20/11
f 16/13/12 12/21/12 10/22/12 14/15/12
o Right_Arm_Cube.002
v 0.234460 -0.351540 0.117180
v 0.234460 0.351540 0.117180
v 0.234460 -0.351540 -0.117180
v 0.234460 0.351540 -0.117180
v 0.468820 -0.351540 0.117180
v 0.468820 0.351540 0.117180
v 0.468820 -0.351540 -0.117180
v 0.468820 0.351540 -0.117180
vt 0.375000 0.000000
vt 0.625000 0.000000
vt 0.625000 0.250000
vt 0.375000 0.250000
vt 0.625000 0.500000
vt 0.375000 0.500000
vt 0.625000 0.750000
vt 0.375000 0.750000
vt 0.625000 1.000000
vt 0.375000 1.000000
vt 0.125000 0.500000
vt 0.125000 0.750000
vt 0.875000 0.500000
vt 0.875000 0.750000
vn -1.0000 -0.0000 0.0000
vn 0.0000 0.0000 -1.0000
vn 1.0000 0.0000 0.0000
vn 0.0000 0.0000 1.0000
vn 0.0000 -1.0000 0.0000
vn 0.0000 1.0000 0.0000
usemtl None
s off
f 17/23/13 18/24/13 20/25/13 19/26/13
f 19/26/14 20/25/14 24/27/14 23/28/14
f 23/28/15 24/27/15 22/29/15 21/30/15
f 21/30/16 22/29/16 18/31/16 17/32/16
f 19/33/17 23/28/17 21/30/17 17/34/17
f 24/27/18 20/35/18 18/36/18 22/29/18
o Head_Cube.003
v 0.234360 0.875000 -0.234360
v 0.234360 0.875000 0.234360
v -0.234360 0.875000 -0.234360
v -0.234360 0.875000 0.234360
v 0.234360 0.351540 -0.234360
v -0.234360 0.351540 -0.234360
v 0.234360 0.351540 0.234360
v -0.234360 0.351540 0.234360
v 0.234360 0.351540 0.117180
v 0.234360 0.351540 -0.117180
v -0.234360 0.351540 -0.117180
v -0.234360 0.351540 0.117180
vt 0.725000 0.725000
vt 0.775000 0.725000
vt 0.775000 0.775000
vt 0.725000 0.775000
vt 0.500000 0.000000
vt 0.000000 0.000000
vt 0.000000 0.500000
vt 0.500000 0.500000
vt 0.500322 0.500095
vt 0.500322 1.000000
vt 0.999678 1.000000
vt 0.999677 0.500095
vt 0.874839 0.500095
vt 0.625161 0.500095
vt 0.500000 1.000000
vt 0.500000 0.500000
vt 0.617180 0.500000
vt 0.882820 0.500000
vt 1.000000 0.500000
vt 1.000000 1.000000
vt 0.500000 1.000000
vt 0.000000 1.000000
vt 0.000000 0.500000
vt 0.500000 0.500000
vt 0.000000 0.000000
vt 0.000000 0.000000
vt 0.000000 0.000000
vt 0.000000 0.000000
vt 0.000000 0.000000
vt 0.000000 0.000000
vt 0.000000 0.000000
vn 0.0000 1.0000 0.0000
vn 0.0000 0.0000 1.0000
vn -1.0000 -0.0000 -0.0000
vn 1.0000 0.0000 0.0000
vn 0.0000 0.0000 -1.0000
vn -0.0000 -1.0000 0.0000
usemtl HeadMaterial
s off
f 25/37/19 27/38/19 28/39/19 26/40/19
f 32/41/20 31/42/20 26/43/20 28/44/20
f 32/45/21 28/46/21 27/47/21 30/48/21 35/49/21 36/50/21
f 26/51/22 31/52/22 33/53/22 34/54/22 29/55/22 25/56/22
f 27/57/23 25/58/23 29/59/23 30/60/23
f 29/61/24 34/62/24 33/63/24 31/42/24 32/64/24 36/65/24 35/66/24 30/67/24
o Right_Leg_Cube.005
v 0.000100 -1.054620 0.117180
v 0.000100 -0.351540 0.117180
v 0.000100 -1.054620 -0.117180
v 0.000100 -0.351540 -0.117180
v 0.234460 -1.054620 0.117180
v 0.234460 -0.351540 0.117180
v 0.234460 -1.054620 -0.117180
v 0.234460 -0.351540 -0.117180
vt 1.000000 0.000000
vt 1.000000 1.000000
vt 0.000000 1.000000
vt -0.000000 0.000000
vt 1.000000 0.000000
vt 1.000000 1.000000
vt 0.000000 1.000000
vt -0.000000 0.000000
vt 1.000000 0.000000
vt 1.000000 1.000000
vt 0.000000 1.000000
vt -0.000000 0.000000
vt 1.000000 0.000000
vt 1.000000 1.000000
vt 0.000000 1.000000
vt -0.000000 0.000000
vt 0.475000 0.075000
vt 0.525000 0.075000
vt 0.525000 0.125000
vt 0.475000 0.125000
vt 0.625000 0.500000
vt 0.875000 0.500000
vt 0.875000 0.750000
vt 0.625000 0.750000
vn -1.0000 -0.0000 0.0000
vn 0.0000 0.0000 -1.0000
vn 1.0000 0.0000 0.0000
vn 0.0000 0.0000 1.0000
vn 0.0000 -1.0000 0.0000
vn 0.0000 1.0000 0.0000
usemtl LegMaterial
s off
f 37/68/25 38/69/25 40/70/25 39/71/25
f 39/72/26 40/73/26 44/74/26 43/75/26
f 43/76/27 44/77/27 42/78/27 41/79/27
f 41/80/28 42/81/28 38/82/28 37/83/28
f 39/84/29 43/85/29 41/86/29 37/87/29
f 44/88/30 40/89/30 38/90/30 42/91/30
o Left_Leg_Cube.006
v -0.234260 -1.054620 0.117180
v -0.234260 -0.351540 0.117180
v -0.234260 -1.054620 -0.117180
v -0.234260 -0.351540 -0.117180
v 0.000100 -1.054620 0.117180
v 0.000100 -0.351540 0.117180
v 0.000100 -1.054620 -0.117180
v 0.000100 -0.351540 -0.117180
vt 1.000000 0.000000
vt 1.000000 1.000000
vt 0.000000 1.000000
vt -0.000000 0.000000
vt 1.000000 0.000000
vt 1.000000 1.000000
vt 0.000000 1.000000
vt -0.000000 0.000000
vt 1.000000 0.000000
vt 1.000000 1.000000
vt 0.000000 1.000000
vt -0.000000 0.000000
vt 1.000000 0.000000
vt 1.000000 1.000000
vt 0.000000 1.000000
vt -0.000000 0.000000
vt 0.100000 0.025000
vt 0.300000 0.025000
vt 0.300000 0.125000
vt 0.100000 0.125000
vt 0.625000 0.500000
vt 0.875000 0.500000
vt 0.875000 0.750000
vt 0.625000 0.750000
vn -1.0000 -0.0000 0.0000
vn 0.0000 0.0000 -1.0000
vn 1.0000 0.0000 0.0000
vn 0.0000 0.0000 1.0000
vn 0.0000 -1.0000 0.0000
vn 0.0000 1.0000 0.0000
usemtl LegMaterial.001
s off
f 45/92/31 46/93/31 48/94/31 47/95/31
f 47/96/32 48/97/32 52/98/32 51/99/32
f 51/100/33 52/101/33 50/102/33 49/103/33
f 49/104/34 50/105/34 46/106/34 45/107/34
f 47/108/35 51/109/35 49/110/35 45/111/35
f 52/112/36 48/113/36 46/114/36 50/115/36
